<svg width="27" height="38" viewBox="0 0 27 38" fill="none" xmlns="http://www.w3.org/2000/svg">
<path d="M13.5 0.620605C6.4569 0.620605 0.75 5.74731 0.75 12.0976C0.75 23.0778 13.5 37.3976 13.5 37.3976C13.5 37.3976 26.25 23.0755 26.25 12.0976C26.25 5.74961 20.5431 0.620605 13.5 0.620605ZM13.5 18.4479C11.674 18.4479 9.92276 17.7936 8.63157 16.629C7.34038 15.4644 6.615 13.8849 6.615 12.2379C6.615 10.5909 7.34038 9.01137 8.63157 7.84677C9.92276 6.68217 11.674 6.02791 13.5 6.02791C15.326 6.02791 17.0772 6.68217 18.3684 7.84677C19.6596 9.01137 20.385 10.5909 20.385 12.2379C20.385 13.8849 19.6596 15.4644 18.3684 16.629C17.0772 17.7936 15.326 18.4479 13.5 18.4479Z" fill="#4A6164"/>
</svg>
