<svg width="31" height="25" viewBox="0 0 31 25" fill="none" xmlns="http://www.w3.org/2000/svg">
<path d="M29.2959 0H1.08503C0.484875 0 0 0.507812 0 1.13636V23.8636C0 24.4922 0.484875 25 1.08503 25H29.2959C29.8961 25 30.381 24.4922 30.381 23.8636V1.13636C30.381 0.507812 29.8961 0 29.2959 0ZM26.5562 3.86719L15.8585 12.5852C15.594 12.8018 15.2244 12.8018 14.9599 12.5852L4.25876 3.86719C4.21842 3.83458 4.18883 3.78958 4.17414 3.73848C4.15945 3.68738 4.1604 3.63274 4.17685 3.58223C4.1933 3.53172 4.22443 3.48787 4.26587 3.45682C4.30731 3.42577 4.357 3.40908 4.40795 3.40909H26.407C26.458 3.40908 26.5077 3.42577 26.5491 3.45682C26.5905 3.48787 26.6217 3.53172 26.6381 3.58223C26.6546 3.63274 26.6555 3.68738 26.6408 3.73848C26.6261 3.78958 26.5965 3.83458 26.5562 3.86719Z" fill="#4A6164"/>
</svg>
