<svg width="25" height="25" viewBox="0 0 25 25" fill="none" xmlns="http://www.w3.org/2000/svg">
<path d="M22.4893 12.5C22.4893 9.0475 19.703 6.25 16.2518 6.25C10.2843 6.25 2.50176 12.5 2.50176 12.5C2.50176 12.5 10.2855 18.75 16.2518 18.75C19.7018 18.75 22.4893 15.9525 22.4893 12.5ZM12.8005 12.5C12.8005 11.6049 13.1561 10.7464 13.789 10.1135C14.422 9.48058 15.2804 9.125 16.1755 9.125C17.0706 9.125 17.9291 9.48058 18.562 10.1135C19.1949 10.7464 19.5505 11.6049 19.5505 12.5C19.5505 13.3951 19.1949 14.2536 18.562 14.8865C17.9291 15.5194 17.0706 15.875 16.1755 15.875C15.2804 15.875 14.422 15.5194 13.789 14.8865C13.1561 14.2536 12.8005 13.3951 12.8005 12.5Z" fill="#322E2E"/>
</svg>
