<svg width="28" height="33" viewBox="0 0 28 33" fill="none" xmlns="http://www.w3.org/2000/svg">
<path d="M26.6947 5.21432L23.0759 0.953156C22.8206 0.650964 22.5172 0.411194 22.183 0.247622C21.8489 0.0840497 21.4906 -0.000102202 21.1288 9.3151e-08C20.3914 9.3151e-08 19.6982 0.340413 19.1784 0.953156L15.2842 5.54272C15.0278 5.84359 14.8244 6.2012 14.6856 6.59501C14.5468 6.98882 14.4754 7.41107 14.4755 7.8375C14.4755 8.70655 14.7643 9.52354 15.2842 10.1363L18.1318 13.4924C17.4652 15.2239 16.5385 16.7991 15.3964 18.142C14.2571 19.4914 12.9207 20.5876 11.4513 21.3779L8.60376 18.0218C8.34848 17.7197 8.04505 17.4799 7.71092 17.3163C7.37678 17.1527 7.01851 17.0686 6.6567 17.0687C5.91933 17.0687 5.22614 17.4091 4.70624 18.0218L0.808728 22.6074C0.552011 22.9088 0.348399 23.2671 0.209606 23.6616C0.070813 24.0561 -0.000421078 24.4791 1.87243e-06 24.9062C1.87243e-06 25.7752 0.288833 26.5922 0.808728 27.205L4.42081 31.4621C5.24992 32.4433 6.39505 33 7.57076 33C7.81882 33 8.05668 32.976 8.29114 32.9279C12.8717 32.0388 17.4148 29.1674 21.0812 24.8501C24.7443 20.5369 27.1773 15.1864 27.9418 9.77184C28.1729 8.11784 27.7074 6.41578 26.6947 5.21432Z" fill="#4A6164"/>
</svg>
