<svg width="19" height="18" viewBox="0 0 19 18" fill="none" xmlns="http://www.w3.org/2000/svg">
<path d="M9.46186 4.54297C8.27125 4.54297 7.1294 4.99636 6.28752 5.8034C5.44563 6.61044 4.97266 7.70502 4.97266 8.84634C4.97266 9.98767 5.44563 11.0822 6.28752 11.8893C7.1294 12.6963 8.27125 13.1497 9.46186 13.1497C10.6525 13.1497 11.7943 12.6963 12.6362 11.8893C13.4781 11.0822 13.9511 9.98767 13.9511 8.84634C13.9511 7.70502 13.4781 6.61044 12.6362 5.8034C11.7943 4.99636 10.6525 4.54297 9.46186 4.54297ZM9.46186 11.6411C8.68838 11.6411 7.94657 11.3466 7.39964 10.8223C6.8527 10.298 6.54543 9.58688 6.54543 8.84541C6.54543 8.10394 6.8527 7.39285 7.39964 6.86855C7.94657 6.34425 8.68838 6.04971 9.46186 6.04971C10.2353 6.04971 10.9772 6.34425 11.5241 6.86855C12.071 7.39285 12.3783 8.10394 12.3783 8.84541C12.3783 9.58688 12.071 10.298 11.5241 10.8223C10.9772 11.3466 10.2353 11.6411 9.46186 11.6411Z" fill="#322E2E"/>
<path d="M14.1296 5.38805C14.7076 5.38805 15.1762 4.93889 15.1762 4.38482C15.1762 3.83075 14.7076 3.38159 14.1296 3.38159C13.5516 3.38159 13.083 3.83075 13.083 4.38482C13.083 4.93889 13.5516 5.38805 14.1296 5.38805Z" fill="#322E2E"/>
<path d="M17.7465 3.36475C17.5218 2.80838 17.1783 2.30313 16.7381 1.88133C16.298 1.45954 15.7708 1.13049 15.1903 0.915254C14.511 0.670823 13.7934 0.538654 13.068 0.524377C12.1331 0.485289 11.837 0.474121 9.46615 0.474121C7.09533 0.474121 6.79146 0.474121 5.8643 0.524377C5.13945 0.537924 4.42235 0.670119 3.74396 0.915254C3.16333 1.13024 2.63599 1.4592 2.19578 1.88103C1.75557 2.30286 1.4122 2.80824 1.18772 3.36475C0.932678 4.01585 0.795119 4.70382 0.78093 5.39917C0.739184 6.29447 0.726562 6.57832 0.726562 8.85192C0.726562 11.1246 0.726562 11.414 0.78093 12.3047C0.795493 13.0008 0.932382 13.6876 1.18772 14.34C1.41283 14.8963 1.75653 15.4015 2.19685 15.8233C2.63717 16.2451 3.16443 16.5741 3.74493 16.7895C4.42204 17.0438 5.13943 17.1854 5.86624 17.2083C6.80117 17.2474 7.09727 17.2595 9.46809 17.2595C11.8389 17.2595 12.1428 17.2595 13.0699 17.2083C13.7953 17.1942 14.5128 17.0623 15.1922 16.8184C15.7725 16.6026 16.2996 16.2733 16.7397 15.8514C17.1799 15.4295 17.5234 14.9243 17.7485 14.3679C18.0038 13.7165 18.1407 13.0297 18.1552 12.3335C18.197 11.4382 18.2096 11.1544 18.2096 8.88077C18.2096 6.60717 18.2096 6.31867 18.1552 5.42802C18.1439 4.72284 18.0057 4.02482 17.7465 3.36475ZM16.564 12.2358C16.5578 12.7721 16.4556 13.3035 16.2621 13.8068C16.1163 14.1687 15.8931 14.4973 15.6068 14.7716C15.3206 15.0458 14.9776 15.2596 14.6 15.3991C14.0808 15.5838 13.5324 15.6817 12.9787 15.6886C12.0564 15.7295 11.7962 15.7397 9.4312 15.7397C7.06427 15.7397 6.82252 15.7397 5.88274 15.6886C5.32929 15.6821 4.78114 15.5841 4.2624 15.3991C3.88346 15.2604 3.53911 15.047 3.25163 14.7727C2.96415 14.4984 2.73994 14.1694 2.59351 13.8068C2.40268 13.3089 2.30061 12.7838 2.29157 12.2535C2.24982 11.3694 2.24012 11.1199 2.24012 8.85285C2.24012 6.58484 2.24012 6.3531 2.29157 5.45129C2.29785 4.91525 2.39997 4.38421 2.59351 3.88127C2.88961 3.14698 3.4964 2.56904 4.2624 2.28798C4.7814 2.10384 5.32938 2.00595 5.88274 1.99854C6.80602 1.95852 7.06524 1.94736 9.4312 1.94736C11.7972 1.94736 12.0399 1.94736 12.9787 1.99854C13.5325 2.00493 14.0809 2.10284 14.6 2.28798C14.9776 2.42783 15.3205 2.64182 15.6067 2.9162C15.893 3.19059 16.1162 3.51931 16.2621 3.88127C16.4529 4.37912 16.555 4.90421 16.564 5.43454C16.6058 6.3196 16.6164 6.56808 16.6164 8.8361C16.6164 11.1032 16.6165 11.347 16.5747 12.2367H16.564V12.2358Z" fill="#322E2E"/>
</svg>
