<svg width="18" height="11" viewBox="0 0 18 11" fill="none" xmlns="http://www.w3.org/2000/svg">
<path d="M11.4558 0.92683H15.834V1.90001H11.4558V0.92683ZM7.0688 4.77733C8.03662 4.35307 8.54357 3.70763 8.54357 2.71032C8.54357 0.737824 6.94151 0.259277 5.09147 0.259277H0V10.16H5.23412C7.19609 10.16 9.03735 9.29537 9.03735 7.28467C9.03735 6.04206 8.39653 5.12317 7.0688 4.77733ZM2.37455 1.94827H4.60207C5.46016 1.94827 6.23046 2.16743 6.23046 3.08029C6.23046 3.92077 5.63134 4.25856 4.78203 4.25856H2.37455V1.94827ZM4.90932 8.47903H2.37236V5.75252H4.95979C6.00442 5.75252 6.66499 6.15265 6.66499 7.16604C6.66499 8.16335 5.87713 8.47903 4.90932 8.47903ZM17.5458 6.67945C17.5458 4.55816 16.1917 2.79075 13.7426 2.79075C11.3614 2.79075 9.74182 4.4335 9.74182 6.58696C9.74182 8.81884 11.2758 10.351 13.7426 10.351C15.6102 10.351 16.8194 9.58089 17.401 7.93815H15.507C15.3007 8.55142 14.4624 8.87313 13.8106 8.87313C12.5509 8.87313 11.8925 8.19753 11.8925 7.04942H17.5304C17.537 6.93079 17.5458 6.80613 17.5458 6.67945ZM11.8925 5.80681C11.9606 4.86379 12.6475 4.27465 13.6745 4.27465C14.7543 4.27465 15.2942 4.85574 15.3885 5.80681H11.8925Z" fill="#322E2E"/>
</svg>
