<svg width="19" height="16" viewBox="0 0 19 16" fill="none" xmlns="http://www.w3.org/2000/svg">
<path d="M18.2724 9.48746V15.474H14.5123V9.88743C14.5123 8.48512 13.9684 7.52811 12.6068 7.52811C11.5681 7.52811 10.9487 8.17259 10.6768 8.79764C10.5785 9.02111 10.5522 9.33201 10.5522 9.64291V15.474H6.79039C6.79039 15.474 6.84128 6.01407 6.79039 5.0344H10.5522V6.51281L10.5277 6.54682H10.5522V6.51281C11.0523 5.80032 11.9436 4.78826 13.9421 4.78826C16.416 4.78826 18.2724 6.28125 18.2724 9.48746ZM2.85487 0C1.56876 0 0.726562 0.780502 0.726562 1.8039C0.726562 2.80786 1.5442 3.60941 2.80574 3.60941H2.83031C4.14273 3.60941 4.95861 2.80624 4.95861 1.8039C4.93405 0.780502 4.14273 0 2.85487 0ZM0.949394 15.474H4.71122V5.0344H0.949394V15.474Z" fill="#322E2E"/>
</svg>
