<svg width="35" height="57" viewBox="0 0 35 57" fill="none" xmlns="http://www.w3.org/2000/svg">
<path d="M10.44 8.052C9.384 8.172 8.664 8.46 8.28 8.916C7.92 9.348 7.74 10.104 7.74 11.184V29.328C7.74 30.528 7.932 31.368 8.316 31.848C8.7 32.328 9.408 32.628 10.44 32.748V33H1.08V32.748C2.136 32.628 2.844 32.352 3.204 31.92C3.564 31.464 3.744 30.6 3.744 29.328V11.184C3.744 10.104 3.552 9.348 3.168 8.916C2.808 8.46 2.112 8.172 1.08 8.052V7.8H10.44V8.052Z" fill="#473D3D"/>
<path d="M30.756 32.316V31.916H30.4281L30.3638 32.2376L30.756 32.316ZM31.044 32.316L31.442 32.3559L31.4862 31.916H31.044V32.316ZM30.072 42V42.4H30.4339L30.47 42.0399L30.072 42ZM13.08 42H12.68V42.4H13.08V42ZM13.08 41.748L13.0348 41.3506L12.68 41.3909V41.748H13.08ZM15.204 40.92L15.5114 41.1762L15.518 41.1679L15.204 40.92ZM15.168 17.916L14.854 18.1639L14.8613 18.173L14.869 18.1817L15.168 17.916ZM13.08 17.052H12.68V17.4082L13.0338 17.4493L13.08 17.052ZM13.08 16.8V16.4H12.68V16.8H13.08ZM22.44 16.8H22.84V16.4H22.44V16.8ZM22.44 17.052L22.4852 17.4494L22.84 17.4091V17.052H22.44ZM20.28 17.916L19.974 17.6583L19.9727 17.6599L20.28 17.916ZM19.74 41.316H19.34V41.716H19.74V41.316ZM25.608 40.848L25.7289 41.2294L25.7373 41.2265L25.608 40.848ZM28.056 39.156L27.7509 38.8972L27.7464 38.9027L28.056 39.156ZM29.64 36.42L29.2669 36.2758L29.2651 36.2805L29.64 36.42ZM30.756 32.716H31.044V31.916H30.756V32.716ZM30.646 32.2761L29.674 41.9601L30.47 42.0399L31.442 32.3559L30.646 32.2761ZM30.072 41.6H13.08V42.4H30.072V41.6ZM13.48 42V41.748H12.68V42H13.48ZM13.1252 42.1454C14.2027 42.023 15.0472 41.733 15.5113 41.1761L14.8967 40.6639C14.6408 40.971 14.0693 41.233 13.0348 41.3506L13.1252 42.1454ZM15.518 41.1679C15.7511 40.8725 15.9039 40.4756 16.0006 40.0116C16.098 39.5439 16.144 38.9805 16.144 38.328H15.344C15.344 38.9475 15.3 39.4521 15.2174 39.8484C15.1341 40.2484 15.0169 40.5115 14.89 40.6721L15.518 41.1679ZM16.144 38.328V20.184H15.344V38.328H16.144ZM16.144 20.184C16.144 19.0811 15.9529 18.1969 15.467 17.6503L14.869 18.1817C15.1511 18.4991 15.344 19.1269 15.344 20.184H16.144ZM15.482 17.6681C15.0203 17.0834 14.1875 16.7781 13.1262 16.6547L13.0338 17.4493C14.0365 17.5659 14.5957 17.8366 14.854 18.1639L15.482 17.6681ZM13.48 17.052V16.8H12.68V17.052H13.48ZM13.08 17.2H22.44V16.4H13.08V17.2ZM22.04 16.8V17.052H22.84V16.8H22.04ZM22.3948 16.6546C21.3096 16.7779 20.4593 17.0821 19.974 17.6583L20.586 18.1737C20.8687 17.8379 21.4584 17.5661 22.4852 17.4494L22.3948 16.6546ZM19.9727 17.6599C19.5181 18.2055 19.34 19.0848 19.34 20.184H20.14C20.14 19.1232 20.3219 18.4905 20.5873 18.1721L19.9727 17.6599ZM19.34 20.184V41.316H20.14V20.184H19.34ZM19.74 41.716H21.9V40.916H19.74V41.716ZM21.9 41.716C23.4126 41.716 24.6927 41.5578 25.7289 41.2293L25.4871 40.4667C24.5553 40.7622 23.3634 40.916 21.9 40.916V41.716ZM25.7373 41.2265C26.7907 40.8668 27.6695 40.26 28.3656 39.4093L27.7464 38.9027C27.1465 39.636 26.3933 40.1572 25.4787 40.4695L25.7373 41.2265ZM28.361 39.4148C29.0648 38.5853 29.6157 37.6324 30.0149 36.5595L29.2651 36.2805C28.8963 37.2716 28.3912 38.1427 27.751 38.8972L28.361 39.4148ZM30.0131 36.5642C30.4324 35.479 30.8098 34.0867 31.1482 32.3944L30.3638 32.2376C30.0302 33.9053 29.6636 35.249 29.2669 36.2758L30.0131 36.5642Z" fill="#322E2E"/>
</svg>
