<?xml version="1.0" encoding="utf-8"?><svg viewBox="0 0 157 162" xmlns="http://www.w3.org/2000/svg" xmlns:xlink="http://www.w3.org/1999/xlink"><style>:root>svg{display:none}:root>svg:target{display:block}</style><svg viewBox="0 0 16 17" id="Vector" xmlns="http://www.w3.org/2000/svg"><path fill-rule="evenodd" clip-rule="evenodd" d="M8 11.294l5.18 5.302c.519.537.857.542 1.386 0l1.039-1.063c.509-.521.543-.864 0-1.42L10.122 8.5l5.483-5.612c.514-.528.524-.884 0-1.42L14.566.404c-.539-.552-.872-.526-1.386 0L8 5.706 2.823.405c-.514-.527-.847-.552-1.386 0L.396 1.468c-.523.537-.514.893 0 1.42L5.88 8.5.397 14.113c-.544.556-.515.899 0 1.42l1.038 1.063c.525.542.863.537 1.387 0L8 11.294z"/></svg><svg viewBox="0 0 117 31" id="about-line" xmlns="http://www.w3.org/2000/svg"><path d="M0 .5h116v30"/><defs><linearGradient id="bpaint0_linear" x1="116" y1="23.5" x2="0" y2="1" gradientUnits="userSpaceOnUse"><stop stop-color="#355556"/><stop offset="1" stop-color="#355556" stop-opacity="0"/></linearGradient></defs></svg><svg viewBox="0 0 27 38" id="address" xmlns="http://www.w3.org/2000/svg"><path d="M13.5.62C6.457.62.75 5.748.75 12.099c0 10.98 12.75 25.3 12.75 25.3s12.75-14.323 12.75-25.3C26.25 5.75 20.543.62 13.5.62zm0 17.828c-1.826 0-3.577-.654-4.868-1.819-1.292-1.165-2.017-2.744-2.017-4.391 0-1.647.725-3.227 2.017-4.391 1.29-1.165 3.042-1.82 4.868-1.82 1.826 0 3.577.655 4.868 1.82 1.292 1.164 2.017 2.744 2.017 4.39 0 1.648-.725 3.227-2.017 4.392-1.29 1.165-3.042 1.819-4.868 1.819z"/></svg><svg viewBox="0 0 37 8" id="arrow-link" xmlns="http://www.w3.org/2000/svg"><path d="M36.354 4.354a.5.5 0 000-.708L33.172.464a.5.5 0 10-.707.708L35.293 4l-2.828 2.828a.5.5 0 10.707.708l3.182-3.182zM0 4.5h36v-1H0v1z"/></svg><svg viewBox="0 0 31 25" id="letter" xmlns="http://www.w3.org/2000/svg"><path d="M29.296 0H1.085C.485 0 0 .508 0 1.136v22.728C0 24.492.485 25 1.085 25h28.21c.601 0 1.086-.508 1.086-1.136V1.136C30.381.508 29.896 0 29.296 0zm-2.74 3.867l-10.698 8.718a.703.703 0 01-.898 0L4.259 3.867a.256.256 0 01-.085-.129.267.267 0 01.003-.156.255.255 0 01.089-.125.237.237 0 01.142-.048h21.999c.051 0 .1.017.142.048a.255.255 0 01.09.125.267.267 0 01-.083.285z"/></svg><svg viewBox="0 0 25 25" id="location" xmlns="http://www.w3.org/2000/svg"><path d="M22.49 12.5a6.24 6.24 0 00-6.238-6.25c-5.968 0-13.75 6.25-13.75 6.25s7.784 6.25 13.75 6.25a6.24 6.24 0 006.237-6.25zm-9.69 0a3.375 3.375 0 116.75 0 3.375 3.375 0 01-6.75 0z"/></svg><svg viewBox="0 0 16 17" id="modal-close" xmlns="http://www.w3.org/2000/svg"><path fill-rule="evenodd" clip-rule="evenodd" d="M8 11.294l5.18 5.302c.519.537.857.542 1.386 0l1.039-1.063c.509-.521.543-.864 0-1.42L10.122 8.5l5.483-5.612c.514-.528.524-.884 0-1.42L14.566.404c-.539-.552-.872-.526-1.386 0L8 5.706 2.823.405c-.514-.527-.847-.552-1.386 0L.396 1.468c-.523.537-.514.893 0 1.42L5.88 8.5.397 14.113c-.544.556-.515.899 0 1.42l1.038 1.063c.525.542.863.537 1.387 0L8 11.294z"/></svg><svg viewBox="0 0 28 33" id="phone" xmlns="http://www.w3.org/2000/svg"><path d="M26.695 5.214l-3.62-4.26a2.767 2.767 0 00-.892-.706A2.39 2.39 0 0021.129 0c-.738 0-1.43.34-1.95.953l-3.895 4.59c-.256.3-.46.658-.598 1.052-.14.394-.21.816-.21 1.243 0 .869.288 1.686.808 2.298l2.848 3.356a16.095 16.095 0 01-2.736 4.65c-1.139 1.35-2.475 2.446-3.945 3.236l-2.847-3.356a2.768 2.768 0 00-.893-.706 2.39 2.39 0 00-1.054-.247c-.738 0-1.43.34-1.95.953L.808 22.607c-.257.302-.46.66-.6 1.055-.138.394-.21.817-.209 1.244 0 .87.289 1.686.809 2.299l3.612 4.257C5.25 32.443 6.395 33 7.57 33c.248 0 .486-.024.72-.072 4.58-.89 9.124-3.76 12.79-8.078 3.663-4.313 6.096-9.664 6.86-15.078.232-1.654-.234-3.356-1.246-4.558z"/></svg><svg viewBox="0 0 19 16" id="social-1" xmlns="http://www.w3.org/2000/svg"><path d="M18.272 9.487v5.987h-3.76V9.887c0-1.402-.544-2.359-1.905-2.359-1.039 0-1.658.645-1.93 1.27-.098.223-.125.534-.125.845v5.831H6.79s.051-9.46 0-10.44h3.762v1.479l-.024.034h.024v-.034c.5-.713 1.392-1.725 3.39-1.725 2.474 0 4.33 1.493 4.33 4.7zM2.855 0C1.569 0 .727.78.727 1.804c0 1.004.817 1.805 2.079 1.805h.024c1.313 0 2.129-.803 2.129-1.805C4.934.78 4.143 0 2.855 0zM.949 15.474h3.762V5.034H.95v10.44z"/></svg><svg viewBox="0 0 19 18" id="social-2" xmlns="http://www.w3.org/2000/svg"><path d="M9.462 4.543a4.59 4.59 0 00-3.174 1.26 4.215 4.215 0 00-1.315 3.043c0 1.142.473 2.236 1.315 3.043a4.59 4.59 0 003.174 1.26 4.59 4.59 0 003.174-1.26 4.215 4.215 0 001.315-3.043 4.215 4.215 0 00-1.315-3.043 4.59 4.59 0 00-3.174-1.26zm0 7.098a2.981 2.981 0 01-2.062-.819 2.738 2.738 0 01-.855-1.977c0-.741.308-1.452.855-1.976a2.982 2.982 0 012.062-.82c.773 0 1.515.295 2.062.82.547.524.854 1.235.854 1.976 0 .742-.307 1.453-.854 1.977a2.982 2.982 0 01-2.062.82zM14.13 5.388c.578 0 1.046-.45 1.046-1.003 0-.554-.468-1.003-1.046-1.003-.578 0-1.047.449-1.047 1.003 0 .554.469 1.003 1.047 1.003z"/><path d="M17.747 3.365a4.272 4.272 0 00-1.009-1.484A4.493 4.493 0 0015.19.915a6.658 6.658 0 00-2.122-.39c-.935-.04-1.231-.05-3.602-.05-2.37 0-2.675 0-3.602.05a6.605 6.605 0 00-2.12.39 4.49 4.49 0 00-1.548.966c-.44.422-.784.927-1.008 1.484A5.906 5.906 0 00.78 5.399C.739 6.294.727 6.58.727 8.852c0 2.273 0 2.562.054 3.453.014.696.151 1.383.407 2.035a4.278 4.278 0 001.009 1.483c.44.422.967.751 1.548.966a6.63 6.63 0 002.121.42c.935.038 1.231.05 3.602.05 2.37 0 2.675 0 3.602-.05a6.667 6.667 0 002.122-.39 4.503 4.503 0 001.548-.968 4.28 4.28 0 001.009-1.483 5.904 5.904 0 00.406-2.034c.042-.896.055-1.18.055-3.453 0-2.274 0-2.562-.055-3.453a5.9 5.9 0 00-.409-2.063zm-1.183 8.87a4.522 4.522 0 01-.302 1.572c-.146.362-.369.69-.655.965-.286.274-.63.488-1.007.627a5.027 5.027 0 01-1.621.29c-.923.04-1.183.05-3.548.05-2.367 0-2.608 0-3.548-.05a5.001 5.001 0 01-1.62-.29 2.915 2.915 0 01-1.011-.626 2.77 2.77 0 01-.658-.966 4.555 4.555 0 01-.302-1.553c-.042-.885-.052-1.134-.052-3.401 0-2.268 0-2.5.052-3.402a4.517 4.517 0 01.302-1.57 2.843 2.843 0 011.668-1.593 5.05 5.05 0 011.62-.29c.924-.04 1.183-.05 3.55-.05 2.365 0 2.608 0 3.547.05a5 5 0 011.621.29c.378.14.72.354 1.007.628.286.275.51.603.655.965.19.498.293 1.023.302 1.554.042.885.052 1.133.052 3.401 0 2.267 0 2.511-.041 3.4h-.011z"/></svg><svg viewBox="0 0 18 11" id="social-3" xmlns="http://www.w3.org/2000/svg"><path d="M11.456.927h4.378V1.9h-4.378V.927zm-4.387 3.85c.968-.424 1.475-1.07 1.475-2.067C8.544.738 6.942.26 5.09.26H0v9.9h5.234c1.962 0 3.803-.865 3.803-2.875 0-1.243-.64-2.162-1.968-2.508zM2.375 1.948h2.227c.858 0 1.628.22 1.628 1.132 0 .84-.599 1.179-1.448 1.179H2.375v-2.31zM4.909 8.48H2.372V5.753H4.96c1.044 0 1.705.4 1.705 1.413 0 .997-.788 1.313-1.756 1.313zm12.637-1.8c0-2.12-1.354-3.888-3.803-3.888-2.382 0-4.001 1.643-4.001 3.796 0 2.232 1.534 3.764 4 3.764 1.868 0 3.077-.77 3.659-2.413h-1.894c-.206.613-1.045.935-1.696.935-1.26 0-1.918-.675-1.918-1.824h5.637c.007-.118.016-.243.016-.37zm-5.653-.872c.068-.943.755-1.532 1.781-1.532 1.08 0 1.62.58 1.715 1.532h-3.496z"/></svg><svg viewBox="0 0 157 162" id="workflow-decor-left" xmlns="http://www.w3.org/2000/svg"><circle r="5" transform="matrix(-1 -.00402 -.00402 1 6.019 156.019)"/><path d="M156.641 1.623l-150-.603L6.04 151.02"/><defs><linearGradient id="lpaint0_linear" x1="7.499" y1="157" x2="146.499" y2="1" gradientUnits="userSpaceOnUse"><stop stop-color="#2C5D61"/><stop offset="1" stop-color="#2C5D61" stop-opacity="0"/></linearGradient></defs></svg><svg viewBox="0 0 155 159" id="workflow-decor-right" xmlns="http://www.w3.org/2000/svg"><path d="M155 154a5 5 0 11-10.001-.001A5 5 0 01155 154z"/><path d="M0 1h150v150"/><defs><linearGradient id="mpaint0_linear" x1="150" y1="151" x2="11.5" y2="1" gradientUnits="userSpaceOnUse"><stop stop-color="#2C5D61"/><stop offset="1" stop-color="#2C5D61" stop-opacity="0"/></linearGradient></defs></svg></svg>